<svg viewBox="0 0 155 35" fill="none" xmlns="http://www.w3.org/2000/svg">
<g clip-path="url(#clip0_2907_1172)">
<path d="M143.062 10.4166C143.098 10.4166 143.098 10.4166 143.134 10.4166C143.17 10.4166 143.205 10.4166 143.241 10.4166C143.813 10.4166 144.742 12.2549 146.101 15.9676C146.887 18.2024 147.566 20.0407 148.138 21.4825C147.995 21.7709 147.817 22.2034 147.602 22.7081C146.78 24.5824 146.137 25.5917 145.672 25.7719C145.565 25.808 145.386 25.8801 145.136 25.9161C144.528 26.0242 144.206 26.3126 144.206 26.7451C144.206 27.0696 144.313 27.3219 144.528 27.5381C144.742 27.7544 145.028 27.8626 145.314 27.8626C146.172 27.8626 147.388 25.9521 148.996 22.1313C149.747 20.3651 150.355 18.9594 150.819 17.842C151.785 15.6792 152.678 13.6247 153.536 11.6422C153.643 11.3538 153.715 11.2096 153.751 11.1736C153.894 10.9213 154.037 10.741 154.215 10.5968C154.394 10.4887 154.609 10.4166 154.895 10.4166H155.002V9.58758C154.609 9.62362 154.251 9.65967 153.894 9.65967C153.536 9.69571 153.25 9.69571 153 9.69571C152.678 9.69571 152.357 9.69571 151.999 9.65967C151.642 9.62362 151.284 9.62362 150.927 9.58758V10.4527H151.105C151.499 10.4527 151.785 10.4887 151.963 10.5968C152.142 10.705 152.214 10.8852 152.214 11.1015C152.214 11.3178 151.999 12.0387 151.534 13.2282C151.07 14.4176 150.319 16.328 149.211 18.9594C148.782 17.7338 148.21 16.1839 147.566 14.3816C146.851 12.4712 146.53 11.4259 146.53 11.2096C146.53 10.9213 146.601 10.741 146.78 10.6329C146.959 10.5248 147.209 10.4887 147.602 10.4887H147.924V9.65967C147.245 9.69571 146.744 9.73176 146.387 9.7678C146.029 9.80385 145.708 9.80385 145.457 9.80385C145.207 9.80385 144.885 9.80385 144.528 9.7678C144.17 9.73176 143.706 9.73176 143.098 9.69571L143.062 10.4166ZM135.448 9.7678C134.84 9.94803 134.268 10.1283 133.696 10.2364L133.839 10.9933C134.018 10.9573 134.125 10.9573 134.197 10.9573C134.268 10.9573 134.34 10.9573 134.411 10.9573C134.733 10.9573 134.948 11.1015 135.055 11.3178C135.162 11.5701 135.234 12.1107 135.234 12.9758V16.9408V18.2024C135.234 19.2477 135.126 19.8965 134.912 20.1489C134.697 20.4012 134.304 20.5814 133.732 20.5814H133.446V21.4104C133.982 21.3744 134.483 21.3383 134.983 21.3023C135.484 21.2663 135.949 21.2663 136.413 21.2663C136.735 21.2663 137.164 21.2663 137.664 21.3023C138.165 21.3383 138.701 21.3744 139.309 21.4104V20.5814H138.951C138.379 20.5814 137.986 20.5093 137.736 20.3651C137.486 20.2209 137.343 19.9326 137.271 19.5361C137.235 19.3198 137.2 18.8152 137.2 18.0222C137.2 17.2292 137.164 16.1839 137.164 14.8862V13.5526C137.629 12.7956 138.058 12.2189 138.451 11.8584C138.844 11.498 139.273 11.3178 139.702 11.3178C139.917 11.3178 140.167 11.3898 140.488 11.534C140.774 11.6782 141.025 11.7503 141.168 11.7503C141.382 11.7503 141.597 11.6422 141.775 11.4259C141.954 11.2096 142.026 10.9573 142.026 10.6689C142.026 10.2364 141.883 9.91198 141.632 9.65967C141.382 9.40735 141.025 9.29921 140.56 9.29921C139.988 9.29921 139.416 9.55153 138.88 10.0562C138.344 10.5608 137.736 11.3898 137.092 12.5433C137.092 11.9305 137.128 11.3178 137.164 10.7771C137.2 10.2003 137.235 9.65967 137.307 9.11899C136.664 9.3713 136.056 9.58758 135.448 9.7678ZM127.405 13.6967C126.511 13.7688 125.26 13.7688 123.687 13.7688C123.866 12.7235 124.223 11.8945 124.76 11.2817C125.296 10.6689 125.975 10.3445 126.726 10.3445C127.405 10.3445 127.977 10.5968 128.477 11.1375C128.978 11.6782 129.335 12.4352 129.55 13.4084C129.014 13.5526 128.299 13.6607 127.405 13.6967ZM130.301 10.6689C129.478 9.73176 128.334 9.26317 126.94 9.26317C125.439 9.26317 124.152 9.91198 123.08 11.1375C122.043 12.3991 121.507 13.9491 121.507 15.8234C121.507 17.5536 122.007 18.9954 123.008 20.1128C124.009 21.2302 125.296 21.7709 126.833 21.7709C127.619 21.7709 128.442 21.5907 129.264 21.2663C130.086 20.9419 130.908 20.4012 131.73 19.7524L131.266 18.9954C130.622 19.4279 130.015 19.7163 129.478 19.9326C128.942 20.1489 128.334 20.2209 127.762 20.2209C126.44 20.2209 125.439 19.7884 124.724 18.9233C124.009 18.0582 123.652 16.8327 123.652 15.2827V14.7781C123.973 14.7421 124.331 14.706 124.724 14.706C125.117 14.67 125.51 14.67 125.975 14.67H131.802C131.623 12.9398 131.158 11.6061 130.301 10.6689ZM108.352 10.4527H108.459C109.031 10.4527 109.531 11.0294 109.96 12.2189C110.032 12.3991 110.103 12.5433 110.103 12.6154C111.354 15.8234 112.212 18.0943 112.677 19.3919C113.142 20.6895 113.356 21.4465 113.356 21.7348H114.679C114.75 21.2302 115.966 18.3826 118.254 13.1921L118.397 12.8677C118.468 12.6875 118.575 12.4712 118.683 12.1828C119.147 11.0294 119.684 10.4527 120.22 10.4527H120.363V9.62362C119.97 9.65967 119.612 9.69571 119.255 9.69571C118.897 9.73176 118.611 9.73176 118.361 9.73176C118.039 9.73176 117.717 9.73176 117.36 9.69571C117.003 9.65967 116.681 9.65967 116.323 9.62362V10.4527H116.502C116.895 10.4527 117.181 10.4887 117.36 10.5968C117.539 10.705 117.61 10.8852 117.61 11.1015C117.61 11.3178 117.432 11.9305 117.038 12.9398C116.645 13.9491 115.823 16.0036 114.536 19.1035C114.107 17.9501 113.607 16.4722 112.927 14.706C112.141 12.5793 111.748 11.3898 111.748 11.1736C111.748 10.8852 111.819 10.705 111.998 10.5968C112.177 10.4887 112.427 10.4527 112.82 10.4527H113.142V9.62362C112.463 9.65967 111.962 9.69571 111.605 9.73176C111.247 9.7678 110.926 9.7678 110.675 9.7678C110.425 9.7678 110.103 9.7678 109.746 9.73176C109.388 9.69571 108.924 9.69571 108.316 9.65967L108.352 10.4527ZM97.2343 11.1015C96.0547 12.327 95.447 13.8409 95.447 15.6071C95.447 17.3734 95.9832 18.8512 97.0913 20.0047C98.1995 21.1581 99.5936 21.7348 101.31 21.7348C103.025 21.7348 104.455 21.086 105.599 19.8244C106.743 18.5629 107.351 17.0129 107.351 15.1386C107.351 13.4444 106.815 12.0387 105.706 10.9213C104.598 9.80385 103.204 9.22712 101.524 9.22712C99.8439 9.26317 98.414 9.87594 97.2343 11.1015ZM104.062 12.0026C104.813 13.0119 105.206 14.3095 105.206 15.8595C105.206 17.3013 104.884 18.4187 104.205 19.2838C103.526 20.1128 102.632 20.5454 101.524 20.5454C100.38 20.5454 99.4149 20.0047 98.7 18.9594C97.985 17.914 97.6275 16.5443 97.6275 14.8502C97.6275 13.5165 97.9493 12.4712 98.5927 11.6782C99.2362 10.8852 100.094 10.4887 101.167 10.4887C102.382 10.5248 103.311 11.0294 104.062 12.0026ZM91.8722 19.8605C91.3718 20.0407 90.9071 20.1128 90.4066 20.1128C89.084 20.1128 88.083 19.6442 87.3323 18.7431C86.5816 17.842 86.2242 16.5443 86.2242 14.9223C86.2242 13.6247 86.5459 12.6154 87.1536 11.8584C87.7613 11.1015 88.5835 10.741 89.6202 10.741C90.1921 10.741 90.8356 10.9573 91.479 11.3538C92.1225 11.7503 92.5157 11.9666 92.5872 11.9666C92.8374 11.9666 93.0876 11.8584 93.3021 11.6061C93.5166 11.3538 93.6238 11.0654 93.6238 10.741C93.6238 10.2724 93.3736 9.91198 92.8732 9.65967C92.3727 9.40735 91.6578 9.26317 90.7283 9.26317C88.941 9.26317 87.4038 9.91198 86.1527 11.1375C84.9015 12.3631 84.2938 13.9491 84.2938 15.7513C84.2938 17.5175 84.7943 18.9594 85.7595 20.0768C86.7604 21.1942 88.0115 21.7709 89.5844 21.7709C90.2636 21.7709 90.9786 21.6267 91.7292 21.3023C92.4799 20.9779 93.2306 20.5454 94.0171 19.9326L93.4094 19.0314C92.8374 19.4279 92.3369 19.6803 91.8722 19.8605ZM79.6467 9.3713C79.182 9.29921 78.753 9.26317 78.3598 9.26317C77.1086 9.26317 76.072 9.58758 75.2498 10.2724C74.4276 10.9573 74.0344 11.7863 74.0344 12.8317C74.0344 13.7328 74.2846 14.4537 74.7851 14.9583C75.2855 15.499 76.1435 15.9676 77.3231 16.328C77.3946 16.3641 77.5376 16.4001 77.6806 16.4362C79.3607 16.9408 80.2186 17.6257 80.2186 18.5268C80.2186 19.1396 79.9684 19.6442 79.4679 20.0407C78.9675 20.4372 78.324 20.6174 77.5018 20.6174C76.6082 20.6174 75.929 20.3651 75.4285 19.8605C74.928 19.3559 74.6421 18.635 74.4991 17.6257L73.6054 17.842C73.6769 18.3105 73.7484 18.7791 73.7841 19.2117C73.8199 19.6442 73.8556 20.0407 73.8556 20.4012C73.8556 20.5814 73.8556 20.7256 73.8556 20.7977C73.8556 20.8698 73.8556 20.9779 73.8199 21.05C74.3918 21.2663 74.928 21.4465 75.4643 21.5546C76.0005 21.6628 76.5367 21.7348 77.0729 21.7348C78.5028 21.7348 79.6824 21.3383 80.5761 20.5814C81.4698 19.8244 81.9345 18.8512 81.9345 17.6617C81.9345 16.8687 81.72 16.2199 81.2911 15.7153C80.8621 15.2106 80.1829 14.8502 79.2177 14.5979C79.039 14.5618 78.7887 14.4897 78.467 14.3816C76.5724 13.877 75.643 13.1561 75.643 12.2549C75.643 11.6782 75.8575 11.2096 76.2864 10.8492C76.7154 10.4887 77.2516 10.3085 77.9308 10.3085C78.7173 10.3085 79.325 10.5248 79.7182 10.9213C80.1471 11.3178 80.3974 11.9666 80.5046 12.7956L81.3983 12.6514C81.2911 12.1468 81.2196 11.6422 81.1838 11.1375C81.1481 10.6329 81.1123 10.1283 81.1123 9.65967C80.6119 9.55153 80.0756 9.4434 79.6467 9.3713ZM67.3854 4.10869C67.1352 4.28892 66.9922 4.4331 66.8849 4.57728C66.8134 4.72146 66.7777 4.86564 66.7777 5.04587C66.7777 5.22609 66.8134 5.37027 66.9207 5.5505C67.0279 5.69468 67.2066 5.87491 67.4211 6.05514L68.2433 6.70395L69.137 6.01909C69.3515 5.83886 69.5302 5.69468 69.6017 5.5505C69.6732 5.40632 69.7447 5.26214 69.7447 5.08191C69.7447 4.90169 69.709 4.72146 69.6017 4.54123C69.4945 4.36101 69.3157 4.21682 69.1012 4.0366L68.2791 3.42383L67.3854 4.10869ZM67.7071 9.7678C67.0637 9.94803 66.456 10.0922 65.8125 10.2364L65.9197 10.9933C66.0627 10.9573 66.2057 10.9573 66.313 10.9573C66.456 10.9573 66.5274 10.9213 66.5989 10.9213C66.9207 10.9213 67.1351 11.0294 67.2781 11.2457C67.4211 11.4619 67.4569 11.8945 67.4569 12.5433C67.4569 12.6514 67.4569 12.8677 67.4569 13.1921C67.4569 13.5165 67.4569 13.8049 67.4569 14.0212L67.4211 17.0129V17.6617C67.4211 19.6082 66.9207 20.6174 65.9197 20.6174H65.6338V21.4465C66.4202 21.4104 67.0279 21.3744 67.4211 21.3383C67.8144 21.3383 68.1361 21.3023 68.3863 21.3023C68.6723 21.3023 69.0298 21.3023 69.423 21.3383C69.8519 21.3744 70.3881 21.3744 71.0673 21.4465V20.6174C71.0316 20.6174 70.9601 20.6174 70.8886 20.6174C70.8171 20.6174 70.7456 20.6174 70.7099 20.6174C70.2094 20.6174 69.8519 20.5093 69.6732 20.257C69.4945 20.0047 69.423 19.4279 69.423 18.4908V17.1931C69.423 15.8595 69.4587 13.5886 69.566 10.3806C69.566 9.80385 69.6017 9.3713 69.6017 9.08294C68.9583 9.33526 68.3148 9.58758 67.7071 9.7678ZM50.6199 16.6885C50.6199 15.5711 50.6199 14.1653 50.6557 12.4712C50.6914 10.7771 50.6914 8.47017 50.7629 5.5505C51.2634 5.47841 51.7638 5.40632 52.2643 5.40632C52.7648 5.37028 53.2295 5.37027 53.6942 5.37027C55.982 5.37027 57.7694 6.05514 59.0563 7.4609C60.3432 8.86667 60.9866 10.7771 60.9866 13.2282C60.9866 15.5351 60.3789 17.3013 59.1993 18.5268C57.9839 19.7524 56.268 20.3651 54.0159 20.3651C53.444 20.3651 52.872 20.3291 52.3358 20.293C51.7638 20.2209 51.1919 20.1489 50.6199 20.0047V16.6885ZM47.9389 21.3383C48.4036 21.3023 48.7968 21.3023 49.1185 21.3023C49.7977 21.3023 50.7272 21.3383 51.8353 21.4104C52.9435 21.4825 53.7299 21.5186 54.1589 21.5186C57.0187 21.5186 59.3065 20.6895 61.0224 19.0675C62.7382 17.4455 63.5962 15.2827 63.5962 12.5793C63.5962 9.98408 62.7382 7.89345 61.0224 6.37954C59.3065 4.86564 56.9829 4.10869 54.0159 4.10869C53.8372 4.10869 53.2295 4.14473 52.1571 4.21682C51.0846 4.28892 50.1195 4.32496 49.2615 4.32496C48.9398 4.32496 48.5823 4.32496 48.1176 4.28892C47.6529 4.25287 47.1882 4.25287 46.652 4.21682V5.04587H46.7592C47.4027 5.04587 47.8674 5.19005 48.1176 5.44237C48.3679 5.69468 48.5108 6.19932 48.5108 6.88418C48.5108 7.71322 48.5108 8.47017 48.5108 9.11899C48.5108 9.7678 48.5108 10.4527 48.5108 11.1375L48.4751 14.3456C48.4751 14.7781 48.4751 15.3548 48.4393 16.1118C48.4393 19.1035 47.9031 20.5814 46.8307 20.5814C46.7235 20.5814 46.652 20.5814 46.5805 20.5814C46.509 20.5814 46.4732 20.5814 46.4375 20.5814V21.4104C46.9737 21.3744 47.4742 21.3744 47.9389 21.3383Z" fill="white"/>
<path d="M137.986 31.1427H138.665V28.7276L140.488 25.6638H139.702L138.343 28.0428L136.985 25.6638H136.198L137.986 28.7276V31.1427ZM131.801 31.1427H132.481V25.6638H131.801V29.9532L128.656 25.6638H127.833V25.7359L128.227 26.3126V31.2148H128.906V27.2498L131.801 31.1427ZM122.042 26.5649L122.936 28.9439H121.184L122.042 26.5649ZM123.687 31.1427H124.473L122.4 25.6278H121.613L119.54 31.1427H120.327L120.863 29.5927H123.079L123.687 31.1427ZM116.001 27.3219C116.001 28.0067 115.572 28.2951 115 28.2951H114.071V26.3126H115C115.536 26.3126 116.001 26.637 116.001 27.3219ZM113.392 31.1427H114.071V28.9439H115C116.037 28.9439 116.716 28.3312 116.716 27.2858C116.716 26.2405 116.001 25.6278 115 25.6278H113.392V31.1427ZM106.6 31.1427L108.351 26.9614V31.1427H109.03V25.6638H108.208L106.314 30.2776L104.348 25.6638H103.525V31.1787H104.205V26.9614L105.956 31.1427H106.6ZM94.6958 28.4032C94.6958 27.2137 95.5894 26.2766 96.7691 26.2766C97.9845 26.2766 98.8782 27.2137 98.8782 28.4032C98.8782 29.6288 97.9845 30.566 96.7691 30.566C95.5894 30.566 94.6958 29.5927 94.6958 28.4032ZM93.9808 28.4032C93.9808 30.0253 95.1962 31.2508 96.8048 31.2508C98.4135 31.2508 99.6289 30.0253 99.6289 28.4032C99.6289 26.7812 98.4135 25.5557 96.8048 25.5557C95.1962 25.5557 93.9808 26.7812 93.9808 28.4032ZM90.4776 30.0613C90.1201 30.3857 89.6197 30.566 89.0477 30.566C87.8323 30.566 86.9744 29.6288 86.9744 28.4032C86.9744 27.2137 87.868 26.2766 89.0477 26.2766C89.6197 26.2766 90.1201 26.4568 90.4776 26.7812V25.9522C90.0844 25.6998 89.5839 25.5557 89.0477 25.5557C87.4391 25.5557 86.2237 26.7812 86.2237 28.4032C86.2237 30.0253 87.4391 31.2508 89.0477 31.2508C89.5839 31.2508 90.0844 31.1066 90.4776 30.8543V30.0613ZM75.2135 26.3126C76.4289 26.3126 77.1796 27.2137 77.1796 28.4032C77.1796 29.6288 76.4289 30.4939 75.2135 30.4939H73.9981V26.3126H75.2135ZM73.2832 31.1427H75.2135C76.8579 31.1427 77.8946 29.9892 77.8946 28.4032C77.8946 26.8173 76.8579 25.6638 75.2135 25.6638H73.2832V31.1427ZM68.2786 31.1427H68.9577V25.6638H68.2786V29.9532L65.1328 25.6638H64.3106V25.7359L64.7038 26.3126V31.2148H65.383V27.2498L68.2786 31.1427ZM58.5196 26.5649L59.3775 28.9439H57.6259L58.5196 26.5649ZM60.1997 31.1427H60.9861L58.9128 25.6278H58.1263L56.053 31.1427H56.8394L57.3756 29.5927H59.592L60.1997 31.1427ZM52.943 31.1427V30.4939H50.6909V25.6638H50.0117V31.1787L52.943 31.1427Z" fill="white"/>
<path d="M1.67974 17.5182C1.67974 15.7519 1.96572 14.0578 2.46618 12.5079C3.00239 10.9219 3.75308 9.44401 4.71825 8.11033C5.71918 6.74061 6.93458 5.58716 8.29298 4.57789C9.65137 3.67675 11.0813 2.84771 12.6541 2.37912C14.1555 1.91053 15.7284 1.76635 17.3728 1.76635C19.1244 1.76635 20.8045 1.94658 22.3774 2.45121C23.9503 2.99189 25.4159 3.82094 26.7028 4.79416C28.0612 5.80343 29.2409 7.02897 30.206 8.39869C31.1355 9.73237 31.8862 11.2102 32.3866 12.7602C32.8513 14.2741 33.0301 15.8601 33.0301 17.5182C33.0301 19.2844 32.7798 20.9425 32.2436 22.5285C31.7074 24.1144 30.9925 25.6284 30.0273 26.926C29.0264 28.2957 27.811 29.4852 26.4168 30.4584C25.0942 31.3956 23.6285 32.1165 22.0557 32.6211C20.5543 33.0897 18.9814 33.3781 17.337 33.3781C15.5854 33.3781 13.9053 33.0897 12.3682 32.5491C10.7953 32.0084 9.36539 31.2154 8.04275 30.2422C6.68435 29.2329 5.46894 28.0794 4.46802 26.6737C3.53859 25.34 2.82365 23.8621 2.32319 22.2761C1.89422 20.7983 1.67974 19.1762 1.67974 17.5182ZM1.32227 17.5182C1.32227 19.2844 1.60824 20.9425 2.1087 22.5285C2.64491 24.1865 3.39561 25.7365 4.39653 27.1062C5.39745 28.4759 6.61286 29.6654 7.97125 30.6747C9.32965 31.6479 10.831 32.4409 12.4397 32.9816C13.9768 33.4862 15.6569 33.6665 17.337 33.6665C19.0886 33.6665 20.7688 33.4862 22.3416 32.9456C23.986 32.4049 25.5231 31.6119 26.8815 30.6026C28.2399 29.5933 29.3838 28.3318 30.3848 26.962C31.3499 25.5923 32.0649 24.0784 32.6011 22.4203C33.1016 20.8704 33.3518 19.2123 33.3518 17.4821C33.3518 15.7159 33.1016 14.0578 32.5653 12.4718C32.0291 10.8137 31.3499 9.22773 30.349 7.85801C29.3481 6.48829 28.1327 5.29879 26.7743 4.28953C25.4159 3.3163 23.9145 2.5233 22.2701 2.01867C20.733 1.51404 19.0529 1.26172 17.3728 1.26172C15.6212 1.26172 13.941 1.55008 12.3682 2.09076C10.7238 2.63144 9.18666 3.38839 7.82826 4.39766C6.46987 5.40693 5.29021 6.63247 4.32503 8.03824C3.35986 9.40796 2.64491 10.9579 2.1087 12.616C1.60824 14.1659 1.32227 15.824 1.32227 17.5182Z" fill="white"/>
<path d="M3.50387 23.8614C3.39663 23.8974 3.32513 23.8614 3.25364 23.7532C3.21789 23.6811 3.25364 23.573 3.36088 23.537C3.46812 23.5009 3.57536 23.537 3.61111 23.6451C3.64686 23.7172 3.57536 23.8253 3.50387 23.8614Z" fill="white"/>
<path d="M4.57595 23.4287C4.46871 23.4648 4.39722 23.4287 4.32572 23.3206C4.28997 23.2485 4.32572 23.1404 4.43296 23.1043C4.54021 23.0683 4.64745 23.1043 4.68319 23.2125C4.71894 23.2846 4.68319 23.3927 4.57595 23.4287Z" fill="white"/>
<path d="M5.68551 22.9961C5.57827 23.0322 5.50677 22.9961 5.43528 22.888C5.39953 22.8159 5.43528 22.7078 5.54252 22.6717C5.64976 22.6357 5.75701 22.6717 5.79275 22.7799C5.8285 22.8519 5.75701 22.9601 5.68551 22.9961Z" fill="white"/>
<path d="M6.79293 22.5635C6.68569 22.5996 6.6142 22.5635 6.5427 22.4554C6.50695 22.3833 6.5427 22.2751 6.64994 22.2391C6.75719 22.2031 6.86443 22.2391 6.90017 22.3472C6.93592 22.3833 6.86443 22.4914 6.79293 22.5635Z" fill="white"/>
<path d="M7.8652 22.0957C7.75796 22.1318 7.68646 22.0957 7.61497 21.9876C7.57922 21.9155 7.61497 21.8074 7.72221 21.7713C7.82945 21.7353 7.93669 21.7713 7.97244 21.8795C8.00819 21.9516 7.97244 22.0597 7.8652 22.0957Z" fill="white"/>
<path d="M8.97262 21.6631C8.86538 21.6992 8.79388 21.6631 8.72239 21.555C8.68664 21.4829 8.72239 21.3748 8.82963 21.3387C8.93687 21.3027 9.04411 21.3387 9.07986 21.4468C9.11561 21.5189 9.07986 21.6271 8.97262 21.6631Z" fill="white"/>
<path d="M10.08 21.1944C9.9728 21.2304 9.90131 21.1944 9.82981 21.0862C9.79406 21.0141 9.82981 20.906 9.93705 20.87C10.0443 20.8339 10.1515 20.87 10.1873 20.9781C10.223 21.0502 10.1873 21.1583 10.08 21.1944Z" fill="white"/>
<path d="M11.1894 20.7618C11.0822 20.7978 11.0107 20.7618 10.9392 20.6536C10.9034 20.5815 10.9392 20.4734 11.0464 20.4373C11.1537 20.4013 11.2609 20.4373 11.2967 20.5455C11.3324 20.6176 11.2609 20.7257 11.1894 20.7618Z" fill="white"/>
<path d="M12.2617 20.3291C12.1544 20.3652 12.0829 20.3291 12.0115 20.221C11.9757 20.1489 12.0115 20.0408 12.1187 20.0047C12.2259 19.9687 12.3332 20.0047 12.3689 20.1129C12.4047 20.185 12.3689 20.2931 12.2617 20.3291Z" fill="white"/>
<path d="M11.0812 31.5393C11.0455 31.6474 10.9382 31.6835 10.8667 31.6474C10.7952 31.6114 10.7237 31.5032 10.7952 31.3951C10.8667 31.287 10.9382 31.2509 11.0455 31.287C11.117 31.323 11.1527 31.4311 11.0812 31.5393Z" fill="white"/>
<path d="M11.5461 30.4221C11.5103 30.5302 11.4031 30.5663 11.3316 30.5302C11.2601 30.4942 11.1886 30.386 11.2601 30.2779C11.3316 30.1698 11.4031 30.1337 11.5103 30.1698C11.5461 30.2058 11.6176 30.3139 11.5461 30.4221Z" fill="white"/>
<path d="M12.0109 29.3049C11.9752 29.413 11.8679 29.4491 11.7964 29.413C11.7249 29.377 11.6534 29.2689 11.7249 29.1607C11.7607 29.0526 11.8679 29.0165 11.9752 29.0526C12.0109 29.1247 12.0467 29.2328 12.0109 29.3049Z" fill="white"/>
<path d="M12.4757 28.1867C12.44 28.2949 12.3328 28.3309 12.2613 28.2949C12.1898 28.2588 12.1183 28.1507 12.1898 28.0426C12.2613 27.9344 12.3328 27.8984 12.44 27.9344C12.4757 28.0065 12.5115 28.1146 12.4757 28.1867Z" fill="white"/>
<path d="M12.9406 27.1057C12.9048 27.2138 12.7976 27.2499 12.7261 27.2138C12.6546 27.1778 12.5831 27.0696 12.6546 26.9615C12.6904 26.8534 12.7976 26.8173 12.9048 26.8534C12.9406 26.8894 12.9763 26.9975 12.9406 27.1057Z" fill="white"/>
<path d="M13.4054 25.9885C13.3697 26.0966 13.2624 26.1327 13.191 26.0966C13.1195 26.0606 13.048 25.9524 13.1195 25.8443C13.191 25.7362 13.2624 25.7001 13.3697 25.7362C13.4054 25.7722 13.4412 25.8804 13.4054 25.9885Z" fill="white"/>
<path d="M13.8683 24.8713C13.8326 24.9794 13.7253 25.0155 13.6538 24.9794C13.5823 24.9434 13.5109 24.8353 13.5823 24.7271C13.6181 24.619 13.7253 24.5829 13.8326 24.619C13.8683 24.655 13.9041 24.7632 13.8683 24.8713Z" fill="white"/>
<path d="M14.3332 23.7531C14.2974 23.8613 14.1902 23.8973 14.1187 23.8613C14.0472 23.8252 13.9757 23.7171 14.0472 23.609C14.1187 23.5008 14.1902 23.4648 14.2974 23.5008C14.3332 23.5369 14.3689 23.645 14.3332 23.7531Z" fill="white"/>
<path d="M14.7629 22.6721C14.7271 22.7802 14.6199 22.8163 14.5484 22.7802C14.4769 22.7442 14.4054 22.636 14.4769 22.5279C14.5484 22.4198 14.6199 22.3837 14.7271 22.4198C14.7986 22.4558 14.8344 22.5639 14.7629 22.6721Z" fill="white"/>
<path d="M23.4523 31.5393C23.4881 31.6474 23.5953 31.6835 23.6668 31.6474C23.7383 31.6114 23.8098 31.5032 23.7383 31.3951C23.6668 31.287 23.5953 31.2509 23.4881 31.287C23.4523 31.323 23.4166 31.4311 23.4523 31.5393Z" fill="white"/>
<path d="M22.9875 30.4221C23.0232 30.5302 23.1305 30.5663 23.2019 30.5302C23.2734 30.4942 23.3449 30.386 23.2734 30.2779C23.2019 30.1698 23.1305 30.1337 23.0232 30.1698C22.9875 30.2058 22.9517 30.3139 22.9875 30.4221Z" fill="white"/>
<path d="M22.5226 29.3049C22.5584 29.413 22.6656 29.4491 22.7371 29.413C22.8086 29.377 22.8801 29.2689 22.8086 29.1607C22.7728 29.0526 22.6656 29.0165 22.5584 29.0526C22.5226 29.1247 22.4869 29.2328 22.5226 29.3049Z" fill="white"/>
<path d="M22.0578 28.1867C22.0935 28.2949 22.2008 28.3309 22.2723 28.2949C22.3438 28.2588 22.4152 28.1507 22.3438 28.0426C22.2723 27.9344 22.2008 27.8984 22.0935 27.9344C22.0578 28.0065 22.022 28.1146 22.0578 28.1867Z" fill="white"/>
<path d="M21.5929 27.1057C21.6287 27.2138 21.7359 27.2499 21.8074 27.2138C21.8789 27.1778 21.9504 27.0696 21.8789 26.9615C21.8432 26.8534 21.7359 26.8173 21.6287 26.8534C21.5929 26.8894 21.5572 26.9975 21.5929 27.1057Z" fill="white"/>
<path d="M21.1281 25.9885C21.1638 26.0966 21.2711 26.1327 21.3426 26.0966C21.4141 26.0606 21.4856 25.9524 21.4141 25.8443C21.3426 25.7362 21.2711 25.7001 21.1638 25.7362C21.1281 25.7722 21.0923 25.8804 21.1281 25.9885Z" fill="white"/>
<path d="M20.6632 24.8713C20.699 24.9794 20.8062 25.0155 20.8777 24.9794C20.9492 24.9434 21.0207 24.8353 20.9492 24.7271C20.9135 24.619 20.8062 24.5829 20.699 24.619C20.6632 24.655 20.6275 24.7632 20.6632 24.8713Z" fill="white"/>
<path d="M20.2339 23.7531C20.2696 23.8613 20.3769 23.8973 20.4484 23.8613C20.5199 23.8252 20.5914 23.7171 20.5199 23.609C20.4484 23.5008 20.3769 23.4648 20.2696 23.5008C20.2339 23.5369 20.1624 23.645 20.2339 23.7531Z" fill="white"/>
<path d="M19.7687 22.6721C19.8045 22.7802 19.9117 22.8163 19.9832 22.7802C20.0547 22.7442 20.1262 22.636 20.0547 22.5279C19.9832 22.4198 19.9117 22.3837 19.8045 22.4198C19.7687 22.4558 19.733 22.5639 19.7687 22.6721Z" fill="white"/>
<path d="M31.2793 11.4989C31.3865 11.4628 31.4223 11.3547 31.3865 11.2826C31.3508 11.2105 31.2435 11.1384 31.1363 11.2105C31.029 11.2826 30.9933 11.3547 31.029 11.4628C31.0648 11.4989 31.172 11.571 31.2793 11.4989Z" fill="white"/>
<path d="M30.207 11.9676C30.3142 11.9316 30.35 11.8235 30.3142 11.7514C30.2785 11.6793 30.1712 11.6072 30.064 11.6793C29.9568 11.7514 29.921 11.8235 29.9568 11.9316C29.9925 11.9676 30.0998 12.0397 30.207 11.9676Z" fill="white"/>
<path d="M29.0976 12.4364C29.2049 12.4003 29.2406 12.2922 29.2049 12.2201C29.1691 12.148 29.0619 12.0759 28.9546 12.148C28.8474 12.2201 28.8116 12.2922 28.8474 12.4003C28.9189 12.4364 29.0261 12.4724 29.0976 12.4364Z" fill="white"/>
<path d="M28.0253 12.9051C28.1325 12.8691 28.1683 12.761 28.1325 12.6889C28.0968 12.6168 27.9895 12.5447 27.8823 12.6168C27.7751 12.6889 27.7393 12.761 27.7751 12.8691C27.8108 12.9051 27.9181 12.9412 28.0253 12.9051Z" fill="white"/>
<path d="M26.916 13.3729C27.0232 13.3369 27.059 13.2287 27.0232 13.1566C26.9875 13.0845 26.8802 13.0125 26.773 13.0845C26.6657 13.1566 26.63 13.2287 26.6657 13.3369C26.7372 13.3729 26.8445 13.409 26.916 13.3729Z" fill="white"/>
<path d="M25.8437 13.8417C25.951 13.8056 25.9867 13.6975 25.951 13.6254C25.9152 13.5533 25.808 13.4812 25.7007 13.5533C25.5935 13.6254 25.5577 13.6975 25.5935 13.8056C25.6292 13.8417 25.7365 13.9138 25.8437 13.8417Z" fill="white"/>
<path d="M24.7363 14.3465C24.8435 14.3105 24.8793 14.2024 24.8435 14.1303C24.8078 14.0582 24.7005 13.9861 24.5933 14.0582C24.4861 14.1303 24.4503 14.2024 24.4861 14.3105C24.5576 14.3465 24.6648 14.3826 24.7363 14.3465Z" fill="white"/>
<path d="M23.6638 14.8153C23.7711 14.7792 23.8068 14.6711 23.7711 14.599C23.7353 14.5269 23.6281 14.4548 23.5209 14.5269C23.4136 14.599 23.3779 14.6711 23.4136 14.7792C23.4494 14.8153 23.5566 14.8513 23.6638 14.8153Z" fill="white"/>
<path d="M22.5918 15.2479C22.699 15.2119 22.7347 15.1037 22.699 15.0316C22.6633 14.9595 22.556 14.8875 22.4488 14.9595C22.3415 14.9956 22.3058 15.1037 22.3415 15.2119C22.3773 15.2479 22.4845 15.284 22.5918 15.2479Z" fill="white"/>
<path d="M3.21635 11.4266C3.10911 11.3906 3.07336 11.2824 3.10911 11.2104C3.14486 11.1383 3.2521 11.0662 3.35934 11.1383C3.46658 11.2103 3.50233 11.2824 3.46658 11.3906C3.43083 11.4266 3.28784 11.4627 3.21635 11.4266Z" fill="white"/>
<path d="M4.28843 11.8954C4.18119 11.8593 4.14544 11.7512 4.18119 11.6791C4.21694 11.607 4.32418 11.5349 4.43142 11.607C4.53866 11.6791 4.57441 11.7512 4.53866 11.8593C4.50292 11.8954 4.39567 11.9314 4.28843 11.8954Z" fill="white"/>
<path d="M5.36283 12.3641C5.25559 12.3281 5.21985 12.2199 5.25559 12.1479C5.29134 12.0758 5.39858 12.0037 5.50582 12.0758C5.61306 12.1478 5.64881 12.2199 5.61307 12.3281C5.57732 12.3641 5.47008 12.4002 5.36283 12.3641Z" fill="white"/>
<path d="M6.4683 12.8329C6.36106 12.7968 6.32531 12.6887 6.36106 12.6166C6.39681 12.5445 6.50405 12.4724 6.61129 12.5445C6.71853 12.6166 6.75428 12.6887 6.71853 12.7968C6.68279 12.8329 6.57555 12.8689 6.4683 12.8329Z" fill="white"/>
<path d="M7.54252 13.3006C7.43528 13.2646 7.39953 13.1565 7.43528 13.0844C7.47103 13.0123 7.57827 12.9402 7.68551 13.0123C7.79275 13.0844 7.8285 13.1565 7.79275 13.2646C7.75701 13.3006 7.64976 13.3367 7.54252 13.3006Z" fill="white"/>
<path d="M8.64988 13.7694C8.54264 13.7333 8.50689 13.6252 8.54264 13.5531C8.57839 13.481 8.68563 13.4089 8.79287 13.481C8.90011 13.5531 8.93586 13.6252 8.90011 13.7333C8.86437 13.7694 8.75712 13.8054 8.64988 13.7694Z" fill="white"/>
<path d="M9.75737 14.2381C9.65012 14.2021 9.61438 14.094 9.65012 14.0219C9.68587 13.9498 9.79311 13.8777 9.90035 13.9498C10.0076 14.0219 10.0433 14.094 10.0076 14.2021C9.9361 14.2381 9.82886 14.2742 9.75737 14.2381Z" fill="white"/>
<path d="M10.8316 14.7069C10.7243 14.6708 10.6886 14.5627 10.7243 14.4906C10.7601 14.4185 10.8673 14.3464 10.9746 14.4185C11.0818 14.4906 11.1176 14.5627 11.0818 14.6709C11.0461 14.7069 10.9388 14.7429 10.8316 14.7069Z" fill="white"/>
<path d="M11.9019 15.1756C11.7947 15.1396 11.7589 15.0315 11.7947 14.9594C11.8304 14.8873 11.9376 14.8152 12.0449 14.8873C12.1521 14.9233 12.1879 15.0315 12.1521 15.1396C12.1164 15.1756 12.0091 15.2117 11.9019 15.1756Z" fill="white"/>
<path d="M19.7688 12.219C19.733 12.3271 19.6258 12.3631 19.5543 12.3271C19.4828 12.291 19.4113 12.1829 19.4828 12.0748C19.5185 11.9666 19.6258 11.9306 19.733 11.9666C19.7688 12.0027 19.8045 12.1108 19.7688 12.219Z" fill="white"/>
<path d="M20.2336 11.1018C20.1979 11.2099 20.0906 11.246 20.0191 11.2099C19.9476 11.1739 19.8761 11.0657 19.9476 10.9576C19.9834 10.8495 20.0906 10.8134 20.1979 10.8495C20.2336 10.9215 20.2694 11.0297 20.2336 11.1018Z" fill="white"/>
<path d="M20.6985 10.0207C20.6627 10.1289 20.5555 10.1649 20.484 10.1289C20.4125 10.0928 20.341 9.98467 20.4125 9.87654C20.4482 9.7684 20.5555 9.73235 20.6627 9.7684C20.6985 9.80445 20.7342 9.91258 20.6985 10.0207Z" fill="white"/>
<path d="M21.1633 8.90255C21.1276 9.01069 21.0203 9.04673 20.9488 9.01069C20.8773 8.97464 20.8058 8.86651 20.8773 8.75837C20.9131 8.65024 21.0203 8.61419 21.1276 8.65024C21.1633 8.68628 21.1991 8.79442 21.1633 8.90255Z" fill="white"/>
<path d="M21.6282 7.8215C21.5924 7.92963 21.4852 7.96568 21.4137 7.92963C21.3422 7.89359 21.2707 7.78545 21.3422 7.67732C21.3779 7.56918 21.4852 7.53314 21.5924 7.56918C21.6282 7.60523 21.6639 7.71336 21.6282 7.8215Z" fill="white"/>
<path d="M22.093 6.70431C22.0572 6.81245 21.95 6.84849 21.8785 6.81245C21.807 6.7764 21.7355 6.66827 21.807 6.56013C21.8428 6.45199 21.95 6.41595 22.0572 6.45199C22.093 6.52408 22.1287 6.63222 22.093 6.70431Z" fill="white"/>
<path d="M22.5559 5.62326C22.5201 5.73139 22.4129 5.76744 22.3414 5.73139C22.2699 5.69535 22.1984 5.58721 22.2699 5.47907C22.3057 5.37094 22.4129 5.33489 22.5201 5.37094C22.5559 5.40698 22.5916 5.51512 22.5559 5.62326Z" fill="white"/>
<path d="M23.0207 4.54123C22.985 4.64936 22.8777 4.68541 22.8062 4.64936C22.7348 4.61332 22.6633 4.50518 22.7348 4.39704C22.7705 4.28891 22.8777 4.25286 22.985 4.28891C23.0207 4.32495 23.0565 4.43309 23.0207 4.54123Z" fill="white"/>
<path d="M23.4856 3.42404C23.4498 3.53217 23.3426 3.56822 23.2711 3.53217C23.1996 3.49613 23.1281 3.38799 23.1996 3.27986C23.2353 3.17172 23.3426 3.13567 23.4498 3.17172C23.4856 3.20777 23.5213 3.3159 23.4856 3.42404Z" fill="white"/>
<path d="M14.6552 12.3274C14.691 12.4355 14.7982 12.4715 14.8697 12.4355C14.9412 12.3994 15.0127 12.2913 14.9412 12.1832C14.9055 12.075 14.7982 12.039 14.691 12.075C14.6552 12.1111 14.6195 12.2192 14.6552 12.3274Z" fill="white"/>
<path d="M14.1904 11.2102C14.2262 11.3183 14.3334 11.3544 14.4049 11.3183C14.4764 11.2823 14.5479 11.1741 14.4764 11.066C14.4049 10.9579 14.3334 10.9218 14.2262 10.9579C14.1904 11.0299 14.1547 11.1381 14.1904 11.2102Z" fill="white"/>
<path d="M13.7256 10.1291C13.7613 10.2373 13.8685 10.2733 13.94 10.2373C14.0115 10.2012 14.083 10.0931 14.0115 9.98493C13.9758 9.8768 13.8685 9.84075 13.7613 9.8768C13.7256 9.91284 13.6898 10.021 13.7256 10.1291Z" fill="white"/>
<path d="M13.2607 9.01095C13.2965 9.11909 13.4037 9.15513 13.4752 9.11909C13.5467 9.08304 13.6182 8.97491 13.5467 8.86677C13.5109 8.75863 13.4037 8.72259 13.2965 8.75863C13.2607 8.79468 13.225 8.93886 13.2607 9.01095Z" fill="white"/>
<path d="M12.7959 7.9299C12.8316 8.03803 12.9389 8.07408 13.0104 8.03803C13.0819 8.00199 13.1533 7.89385 13.0819 7.78572C13.0461 7.67758 12.9389 7.64153 12.8316 7.67758C12.7959 7.71362 12.7601 7.82176 12.7959 7.9299Z" fill="white"/>
<path d="M12.331 6.81271C12.3668 6.92084 12.474 6.95689 12.5455 6.92085C12.617 6.8848 12.6885 6.77666 12.617 6.66853C12.5813 6.56039 12.474 6.52435 12.3668 6.56039C12.331 6.63248 12.2953 6.74062 12.331 6.81271Z" fill="white"/>
<path d="M11.8681 5.73165C11.9039 5.83979 12.0111 5.87584 12.0826 5.83979C12.1541 5.80375 12.2256 5.69561 12.1541 5.58747C12.1184 5.47934 12.0111 5.44329 11.9039 5.47934C11.8681 5.51538 11.8324 5.62352 11.8681 5.73165Z" fill="white"/>
<path d="M11.4033 4.64962C11.439 4.75776 11.5463 4.7938 11.6178 4.75776C11.6893 4.72171 11.7608 4.61358 11.6893 4.50544C11.6535 4.39731 11.5463 4.36126 11.439 4.39731C11.4033 4.43335 11.3675 4.54149 11.4033 4.64962Z" fill="white"/>
<path d="M10.9385 3.53244C10.9742 3.64057 11.0814 3.67662 11.1529 3.64057C11.2244 3.60453 11.2959 3.49639 11.2244 3.38825C11.1887 3.28012 11.0814 3.24407 10.9742 3.28012C10.9385 3.31616 10.9027 3.46035 10.9385 3.53244Z" fill="white"/>
<path d="M31.2089 23.6458C31.3162 23.6818 31.3519 23.79 31.3162 23.8621C31.2804 23.9342 31.1732 24.0062 31.066 23.9342C30.9587 23.8981 30.923 23.79 30.9587 23.6818C31.0302 23.6458 31.1375 23.6097 31.2089 23.6458Z" fill="white"/>
<path d="M30.1367 23.177C30.2439 23.2131 30.2797 23.3212 30.2439 23.3933C30.2082 23.4654 30.1009 23.5375 29.9937 23.4654C29.8865 23.4294 29.8507 23.3212 29.8865 23.2131C29.9222 23.177 30.0294 23.141 30.1367 23.177Z" fill="white"/>
<path d="M29.0644 22.7083C29.1717 22.7443 29.2074 22.8525 29.1717 22.9246C29.1359 22.9967 29.0287 23.0687 28.9214 22.9967C28.8142 22.9606 28.7784 22.8525 28.8142 22.7443C28.8499 22.7083 28.9572 22.6722 29.0644 22.7083Z" fill="white"/>
<path d="M27.955 22.2395C28.0622 22.2756 28.098 22.3837 28.0622 22.4558C28.0265 22.5279 27.9192 22.6 27.812 22.5279C27.7048 22.4558 27.669 22.3837 27.7048 22.2756C27.7762 22.2395 27.8835 22.2035 27.955 22.2395Z" fill="white"/>
<path d="M26.8828 21.7708C26.99 21.8068 27.0258 21.915 26.99 21.9871C26.9543 22.0592 26.847 22.1312 26.7398 22.0592C26.6325 22.0231 26.5968 21.915 26.6325 21.8068C26.6683 21.7708 26.7755 21.7347 26.8828 21.7708Z" fill="white"/>
<path d="M25.7734 21.3022C25.8806 21.3383 25.9164 21.4464 25.8806 21.5185C25.8449 21.6266 25.7377 21.6627 25.6304 21.6266C25.5232 21.5906 25.4874 21.4825 25.5232 21.3743C25.5947 21.3022 25.7019 21.2662 25.7734 21.3022Z" fill="white"/>
<path d="M24.7031 20.8343C24.8103 20.8703 24.8461 20.9784 24.8103 21.0505C24.7746 21.1226 24.6673 21.1947 24.5601 21.1226C24.4529 21.0505 24.4171 20.9784 24.4529 20.8703C24.4886 20.8343 24.5958 20.7982 24.7031 20.8343Z" fill="white"/>
<path d="M23.5935 20.3655C23.7008 20.4016 23.7365 20.5097 23.7008 20.5818C23.665 20.6539 23.5578 20.726 23.4505 20.6539C23.3433 20.5818 23.3076 20.5097 23.3433 20.4016C23.379 20.3655 23.522 20.3295 23.5935 20.3655Z" fill="white"/>
<path d="M22.5214 19.8968C22.6287 19.9328 22.6644 20.0409 22.6287 20.113C22.5929 20.1851 22.4857 20.2572 22.3785 20.1851C22.2712 20.113 22.2355 20.0409 22.2712 19.9328C22.307 19.8968 22.45 19.8607 22.5214 19.8968Z" fill="white"/>
<path d="M0.679197 17.482C0.679197 8.21833 8.15037 0.684861 17.3374 0.684861C26.5244 0.684861 33.9956 8.21833 33.9956 17.482C33.9956 26.7456 26.5602 34.3151 17.3374 34.3151C8.11462 34.3151 0.679197 26.7456 0.679197 17.482ZM0 17.482C0 27.1421 7.7929 34.964 17.3374 34.964C26.8819 34.964 34.6748 27.1061 34.6748 17.482C34.6748 7.85788 26.9177 0 17.3374 0C7.75715 0 0 7.85788 0 17.482Z" fill="white"/>
<path d="M24.3102 24.5327L24.1838 24.6602L28.5573 29.0695L28.6837 28.9421L24.3102 24.5327Z" fill="white"/>
<path d="M6.14825 6.34438L10.3307 10.5617L10.4737 10.4535L6.2555 6.2002L6.14825 6.34438Z" fill="white"/>
<path d="M24.3438 10.3807L24.451 10.5248L28.5262 6.37962L28.4189 6.27148L24.3438 10.3807Z" fill="white"/>
<path d="M6.25586 28.7277L6.39885 28.8719L10.331 24.8708L10.2238 24.7627L6.25586 28.7277Z" fill="white"/>
<path d="M17.2315 16.0039H16.6953V18.3469C16.6953 18.8875 16.7668 18.9957 17.16 18.9957H17.2315C18.3039 18.9957 18.5184 18.1666 18.5184 17.5178C18.5542 16.8329 18.3397 16.0039 17.2315 16.0039Z" fill="white"/>
<path d="M32.8156 17.4457L20.3399 15.6795L23.4856 11.318L19.1602 14.3818L17.3013 1.91016L15.5855 14.3818L11.2601 11.318L14.2986 15.6795L1.89429 17.4457L14.3701 19.32L11.2243 23.6815L15.5497 20.6177L17.2656 33.0893L19.1245 20.5095L23.4499 23.6815L20.4114 19.32L32.8156 17.4457ZM17.2299 19.284H15.4782V19.1038C16.0144 19.1038 16.1217 18.9596 16.1217 18.1305V16.7969C16.1217 15.9678 16.0144 15.8236 15.4782 15.8236V15.6434H17.2299C18.624 15.6434 19.2317 16.4725 19.2317 17.4457C19.2317 18.491 18.624 19.284 17.2299 19.284Z" fill="white"/>
</g>
<defs>
<clipPath id="clip0_2907_1172">
<rect width="155" height="35" fill="white"/>
</clipPath>
</defs>
</svg>
